<?xml version="1.0" encoding="utf-8"?>
<!-- Generator: Adobe Illustrator 22.0.0, SVG Export Plug-In . SVG Version: 6.00 Build 0)  -->
<svg version="1.1" id="Слой_1" xmlns="http://www.w3.org/2000/svg" xmlns:xlink="http://www.w3.org/1999/xlink" x="0px" y="0px"
	 viewBox="0 0 11.2 8.7" style="enable-background:new 0 0 11.2 8.7;" xml:space="preserve">
<style type="text/css">
	.st0{fill:#FFFFFF;}
</style>
<path class="st0" d="M0.1,8.1c0-0.2,0.2-0.4,0.5-0.4h10c0.3,0,0.5,0.2,0.5,0.4s-0.2,0.4-0.5,0.4h-10C0.3,8.4,0.1,8.3,0.1,8.1z
	 M0.1,4.3C0.1,4.1,0.3,4,0.6,4h10c0.3,0,0.5,0.2,0.5,0.4c0,0.2-0.2,0.4-0.5,0.4h-10C0.3,4.7,0.1,4.5,0.1,4.3z M0.1,0.7
	c0-0.2,0.2-0.4,0.5-0.4h10c0.3,0,0.5,0.2,0.5,0.4s-0.2,0.4-0.5,0.4h-10C0.3,1.1,0.1,0.9,0.1,0.7z"/>
</svg>
