<?xml version="1.0" encoding="utf-8"?>
<!-- Generator: Adobe Illustrator 22.0.0, SVG Export Plug-In . SVG Version: 6.00 Build 0)  -->
<svg version="1.1" id="Слой_1" xmlns="http://www.w3.org/2000/svg" xmlns:xlink="http://www.w3.org/1999/xlink" x="0px" y="0px"
	 viewBox="0 0 250.3 191.7" style="enable-background:new 0 0 250.3 191.7;" xml:space="preserve">
<style type="text/css">
	.st0{fill:#FFFFFF;}
	.st1{fill:none;stroke:#FFFFFF;stroke-width:1.5;stroke-miterlimit:10;}
	.st2{fill:none;stroke:#FFFFFF;stroke-width:1.5;stroke-miterlimit:10;stroke-dasharray:3.0786,3.0786;}
	.st3{fill:none;stroke:#FFFFFF;stroke-width:2;stroke-miterlimit:10;}
	.st4{fill:none;stroke:#FFFFFF;stroke-width:1.5;stroke-miterlimit:10;stroke-dasharray:3.07,3.07;}
</style>
<g>
	<g>
		<path class="st0" d="M1.6,120V71.4H12c2.2,0,4.1,0.3,5.6,0.8c1.5,0.6,2.7,1.4,3.7,2.5c0.9,1.1,1.6,2.4,2,3.9s0.6,3.2,0.6,5
			c0,1.6-0.2,3.1-0.5,4.5c-0.4,1.5-1,2.7-1.9,3.7s-2.1,1.7-3.7,2c1.9,0.5,3.3,1.4,4.4,2.7c1.1,1.3,1.8,2.7,2.3,4.4
			c0.4,1.7,0.7,3.4,0.7,5.1c0,1.9-0.2,3.7-0.5,5.4c-0.3,1.7-0.9,3.2-1.8,4.5s-2,2.3-3.5,3S16,120,13.8,120L1.6,120z M6.2,92.3h6.6
			c1.9,0,3.3-0.4,4.3-1.1s1.7-1.8,2.1-3.1c0.4-1.3,0.6-2.9,0.6-4.6c0-2-0.3-3.6-0.8-4.9s-1.5-2.2-2.8-2.8c-1.3-0.6-3.2-0.9-5.7-0.9
			H6.2C6.2,74.9,6.2,92.3,6.2,92.3z M6.2,116.6h6.5c3.2,0,5.3-0.9,6.3-2.6c1.1-1.7,1.6-4.4,1.6-8c0-2-0.2-3.7-0.7-5.2
			s-1.3-2.7-2.4-3.6s-2.7-1.3-4.7-1.3H6.1L6.2,116.6L6.2,116.6z"/>
		<path class="st0" d="M31.5,120l10.3-48.6h4.8L56.9,120h-4.5L50,107H38.4l-2.5,13H31.5z M39,103.7h10.3l-5.2-26.2L39,103.7z"/>
		<path class="st0" d="M65.1,120V71.4h4.6v25.7l13-25.7h4.4l-10,20.9L89.3,120h-4.5L74,95.7l-4.3,7.9V120H65.1z"/>
		<path class="st0" d="M95.9,120V71.4h17.6v3.5h-13v18.2H111v3.4h-10.6v20h13.1v3.4H95.9V120z"/>
		<path class="st0" d="M148.1,120.6c-3.3,0-5.8-0.7-7.6-2c-1.8-1.4-3-3.2-3.7-5.5s-1-4.8-1-7.7V86.1c0-3,0.3-5.6,1-7.9
			s2-4.1,3.8-5.3c1.8-1.3,4.3-1.9,7.5-1.9c2.9,0,5.2,0.6,6.9,1.7s2.8,2.7,3.6,4.8c0.7,2.1,1.1,4.5,1.1,7.4v2.9h-4.3V85
			c0-2.1-0.2-3.9-0.5-5.5c-0.3-1.5-1-2.7-2.1-3.5c-1-0.8-2.6-1.3-4.6-1.3c-2.2,0-3.8,0.4-4.9,1.4c-1.1,0.9-1.8,2.2-2.2,3.8
			c-0.4,1.6-0.6,3.5-0.6,5.7v20.7c0,2.4,0.2,4.4,0.7,6s1.3,2.8,2.4,3.6c1.1,0.8,2.7,1.2,4.6,1.2c2,0,3.6-0.4,4.6-1.3
			s1.7-2.1,2.1-3.7c0.3-1.6,0.5-3.4,0.5-5.5v-3.2h4.3v2.9c0,2.8-0.3,5.4-1,7.6s-1.8,3.9-3.5,5.1C153.5,120,151.2,120.6,148.1,120.6z
			"/>
		<path class="st0" d="M166.5,120l10.3-48.6h4.8l10.3,48.6h-4.5l-2.4-13h-11.6l-2.5,13H166.5z M174.1,103.7h10.3l-5.2-26.2
			L174.1,103.7z"/>
		<path class="st0" d="M200.1,120V71.4h4.6v25.7l13-25.7h4.4l-10,20.9l12.2,27.7h-4.5l-10.7-24.3l-4.3,7.9V120H200.1z"/>
		<path class="st0" d="M230.9,120V71.4h17.6v3.5h-13v18.2h10.6v3.4h-10.6v20h13.1v3.4h-17.7V120z"/>
	</g>
</g>
<g>
	<g>
		<path class="st1" d="M65.8,170.6c-0.4-0.3-0.8-0.6-1.2-0.9"/>
		<path class="st2" d="M62.3,167.7c-10.3-9.1-18.6-20.6-23.8-33.6"/>
		<path class="st1" d="M37.9,132.6c-0.2-0.5-0.4-0.9-0.5-1.4"/>
	</g>
</g>
<path class="st3" d="M202,131.2c-12.4,34-44.5,58.2-82.3,58.2c-20.3,0-39-7-53.9-18.8"/>
<g>
	<g>
		<path class="st1" d="M173.2,20.4c0.4,0.3,0.8,0.6,1.2,0.9"/>
		<path class="st4" d="M176.8,23.3c10.3,9,18.6,20.4,23.9,33.4"/>
		<path class="st1" d="M201.2,58.1c0.2,0.5,0.4,0.9,0.5,1.4"/>
	</g>
</g>
<path class="st3" d="M37.6,59.5C50,25.8,82.1,1.9,119.7,1.9c20.2,0,38.8,6.9,53.6,18.5"/>
<circle class="st0" cx="37.6" cy="133.9" r="2.7"/>
<circle class="st0" cx="201.8" cy="58.8" r="2.7"/>
</svg>
